<svg xmlns="http://www.w3.org/2000/svg" width="920" height="260" role="img" aria-label="Pre-execution trust boundary">
  <rect width="920" height="260" fill="#ffffff"/>
  <g fill="#f4f7fb" stroke="#263238" stroke-width="1.5" font-family="Arial, sans-serif" font-size="13">
    <rect x="20" y="34" width="120" height="42"/><text x="38" y="59">Observation</text>
    <rect x="160" y="34" width="120" height="42"/><text x="178" y="59">Discovery</text>
    <rect x="300" y="34" width="120" height="42"/><text x="322" y="59">Ranking</text>
    <rect x="440" y="34" width="120" height="42"/><text x="454" y="59">Baseline</text>
    <rect x="580" y="34" width="120" height="42"/><text x="598" y="59">Quality</text>
    <rect x="720" y="34" width="170" height="42"/><text x="746" y="59">Plan frozen</text>
    <rect x="300" y="160" width="320" height="44" fill="#fff8e1"/><text x="326" y="186">Guardrails only: hold, block, demote</text>
  </g>
  <g stroke="#263238" stroke-width="1.5" marker-end="url(#a)">
    <line x1="140" y1="55" x2="160" y2="55"/><line x1="280" y1="55" x2="300" y2="55"/><line x1="420" y1="55" x2="440" y2="55"/><line x1="560" y1="55" x2="580" y2="55"/><line x1="700" y1="55" x2="720" y2="55"/>
  </g>
  <defs><marker id="a" markerWidth="8" markerHeight="8" refX="7" refY="4" orient="auto"><path d="M0,0 L8,4 L0,8 Z" fill="#263238"/></marker></defs>
</svg>
